<svg width="42" height="38" viewBox="0 0 42 38" fill="none" xmlns="http://www.w3.org/2000/svg">
<path d="M7 29H5C3.93913 29 2.92172 28.5786 2.17157 27.8284C1.42143 27.0783 1 26.0609 1 25V5C1 3.93913 1.42143 2.92172 2.17157 2.17157C2.92172 1.42143 3.93913 1 5 1H37C38.0609 1 39.0783 1.42143 39.8284 2.17157C40.5786 2.92172 41 3.93913 41 5V25C41 26.0609 40.5786 27.0783 39.8284 27.8284C39.0783 28.5786 38.0609 29 37 29H35" stroke="black" stroke-width="2" stroke-linecap="round" stroke-linejoin="round"/>
<path d="M21 25L31 37H11L21 25Z" stroke="black" stroke-width="2" stroke-linecap="round" stroke-linejoin="round"/>
</svg>
