<svg xmlns="http://www.w3.org/2000/svg" width="20.313" height="18.745" viewBox="0 0 20.313 18.745">
  <g id="Icon_ionic-md-thumbs-down" data-name="Icon ionic-md-thumbs-down" transform="translate(-2.344 -3.125)">
    <path id="Path_93" data-name="Path 93" d="M15.332,3.125h-8.4a1.792,1.792,0,0,0-1.67,1.143L2.471,10.879a1.869,1.869,0,0,0-.127.684v1.885a2.154,2.154,0,0,0,1.846,2.178h5.825L9.136,19.6l-.029.293a1.415,1.415,0,0,0,.405.991l.977.981,6.162-6.211a1.88,1.88,0,0,0,.537-1.323V4.961A1.841,1.841,0,0,0,15.332,3.125Z" fill="#333"/>
    <path id="Path_94" data-name="Path 94" d="M19.531,3.125h3.125V14.063H19.531Z" fill="#333"/>
  </g>
</svg>
