<svg xmlns="http://www.w3.org/2000/svg" width="18.75" height="13.125" viewBox="0 0 18.75 13.125">
  <path id="Icon_awesome-user-friends" data-name="Icon awesome-user-friends" d="M5.625,7.5A3.281,3.281,0,1,0,2.344,4.219,3.28,3.28,0,0,0,5.625,7.5Zm2.25.938H7.632a4.53,4.53,0,0,1-4.014,0H3.375A3.376,3.376,0,0,0,0,11.813v.844a1.407,1.407,0,0,0,1.406,1.406H9.844a1.407,1.407,0,0,0,1.406-1.406v-.844A3.376,3.376,0,0,0,7.875,8.438ZM14.063,7.5A2.813,2.813,0,1,0,11.25,4.688,2.813,2.813,0,0,0,14.063,7.5Zm1.406.938h-.111a3.694,3.694,0,0,1-2.59,0h-.111a3.254,3.254,0,0,0-1.632.451,4.287,4.287,0,0,1,1.163,2.924v1.125c0,.064-.015.126-.018.188h5.174a1.407,1.407,0,0,0,1.406-1.406A3.28,3.28,0,0,0,15.469,8.438Z" transform="translate(0 -0.938)" fill="#333"/>
</svg>
