<svg xmlns="http://www.w3.org/2000/svg" width="24.219" height="24.219" viewBox="0 0 24.219 24.219">
  <path id="Icon_awesome-question-circle" data-name="Icon awesome-question-circle" d="M24.609,12.5A12.109,12.109,0,1,1,12.5.391,12.109,12.109,0,0,1,24.609,12.5ZM12.825,4.395A6.325,6.325,0,0,0,7.134,7.508a.587.587,0,0,0,.133.794L8.961,9.586a.586.586,0,0,0,.814-.1c.872-1.106,1.47-1.748,2.8-1.748,1,0,2.231.642,2.231,1.609,0,.731-.6,1.107-1.589,1.659-1.149.644-2.669,1.445-2.669,3.45v.2a.586.586,0,0,0,.586.586h2.734a.586.586,0,0,0,.586-.586v-.065c0-1.39,4.062-1.448,4.062-5.208,0-2.832-2.938-4.98-5.69-4.98ZM12.5,16.5a2.246,2.246,0,1,0,2.246,2.246A2.249,2.249,0,0,0,12.5,16.5Z" transform="translate(-0.391 -0.391)" fill="#ddd"/>
</svg>
