<svg xmlns="http://www.w3.org/2000/svg" width="20.308" height="18.75" viewBox="0 0 20.308 18.75">
  <g id="Icon_ionic-md-thumbs-up" data-name="Icon ionic-md-thumbs-up" transform="translate(-2.344 -3.125)">
    <path id="Path_91" data-name="Path 91" d="M9.668,21.875h8.4a1.792,1.792,0,0,0,1.67-1.143l2.788-6.611a1.869,1.869,0,0,0,.127-.684V11.553a2.154,2.154,0,0,0-1.846-2.178h-5.82L15.864,5.4l.029-.293a1.415,1.415,0,0,0-.405-.991L14.5,3.125,8.35,9.341a1.88,1.88,0,0,0-.537,1.323v9.375A1.841,1.841,0,0,0,9.668,21.875Z" fill="#333"/>
    <path id="Path_92" data-name="Path 92" d="M2.344,10.938H5.469V21.875H2.344Z" fill="#333"/>
  </g>
</svg>
