<svg xmlns="http://www.w3.org/2000/svg" width="189.256" height="31" viewBox="0 0 189.256 31">
  <g id="logo_petfinder" transform="translate(-1042.872 -465)">
    <g id="Icon_ionic-ios-paw" data-name="Icon ionic-ios-paw" transform="translate(1039.5 462)">
      <path id="Path_55" data-name="Path 55" d="M22.8,5.646a1.537,1.537,0,0,0-.253-.021v.007h-.028c-1.547,0-3.016,1.821-3.361,4.24-.373,2.573.661,4.852,2.3,5.091a1.893,1.893,0,0,0,.281.021c1.547,0,3.016-1.821,3.361-4.24C25.474,8.163,24.441,5.885,22.8,5.646Z" transform="translate(-1.354)" fill="#fb1"/>
      <path id="Path_56" data-name="Path 56" d="M22.542,5.625Z" transform="translate(-1.308)" fill="#fb1"/>
      <path id="Path_57" data-name="Path 57" d="M31.1,11.911a2.036,2.036,0,0,0-.766-.148H30.3c-1.385.021-2.939,1.35-3.755,3.361-.977,2.4-.527,4.866,1.013,5.5a2.036,2.036,0,0,0,.766.148c1.392,0,2.967-1.336,3.79-3.361C33.089,15,32.632,12.544,31.1,11.911Z" transform="translate(-1.996 -0.78)" fill="#fb1"/>
      <path id="Path_58" data-name="Path 58" d="M21.587,20.77C19.807,17.7,19.038,16.552,17,16.552s-2.811,1.16-4.592,4.219c-1.524,2.616-4.6,2.834-5.373,5.055a3.5,3.5,0,0,0-.231,1.28,3.131,3.131,0,0,0,2.971,3.27c2.036,0,4.809-1.687,7.23-1.687s5.181,1.688,7.217,1.688a3.126,3.126,0,0,0,2.965-3.27,3.5,3.5,0,0,0-.237-1.28C26.185,23.6,23.111,23.386,21.587,20.77Z" transform="translate(0 -2)" fill="#fb1"/>
      <path id="Path_59" data-name="Path 59" d="M14.259,14.977a1.894,1.894,0,0,0,.281-.021c1.645-.239,2.672-2.517,2.3-5.091-.352-2.426-1.821-4.24-3.361-4.24a1.893,1.893,0,0,0-.281.021c-1.645.239-2.672,2.517-2.3,5.091C11.25,13.155,12.72,14.977,14.259,14.977Z" transform="translate(-0.642)" fill="#fb1"/>
      <path id="Path_60" data-name="Path 60" d="M8.445,20.623c1.54-.633,1.99-3.094,1.012-5.5-.823-2.025-2.4-3.361-3.79-3.361a2.036,2.036,0,0,0-.766.148c-1.54.633-1.99,3.094-1.013,5.5.823,2.025,2.4,3.361,3.79,3.361A2.036,2.036,0,0,0,8.445,20.623Z" transform="translate(0 -0.78)" fill="#fb1"/>
    </g>
    <text id="PETFINDER360" transform="translate(1074.128 488)" fill="#2d3332" font-size="22" font-family="Poppins-Bold, Poppins" font-weight="700"><tspan x="0" y="0">PETFINDER360</tspan></text>
  </g>
</svg>
